<?xml version="1.0" encoding="utf-8"?>
<!-- Generator: Adobe Illustrator 23.0.0, SVG Export Plug-In . SVG Version: 6.00 Build 0)  -->
<svg version="1.1" id="Layer_1" xmlns="http://www.w3.org/2000/svg" xmlns:xlink="http://www.w3.org/1999/xlink" x="0px" y="0px"
	 viewBox="0 0 120 90" style="enable-background:new 0 0 120 90;" xml:space="preserve">
<style type="text/css">
	.st0{fill:#00ADEE;}
</style>
<title>Artboard 1</title>
<path class="st0" d="M32.4,13.6h24.1c5.6,0,10.5,1,14.9,3.1c4.3,2.1,7.7,5.1,10.1,8.9C83.8,29.5,85,34,85,39.2
	c0,5.2-1.2,9.7-3.6,13.5c-2.4,3.8-5.7,6.8-10.1,8.9c-4.3,2.1-9.3,3.1-14.9,3.1H32.4V13.6z M55.9,53.2c4.4,0,7.9-1.2,10.5-3.7
	c2.6-2.5,4-5.9,4-10.3s-1.3-7.8-4-10.3c-2.7-2.5-6.2-3.7-10.5-3.7h-9.1v28H55.9z"/>
<rect x="32.5" y="71.1" class="st0" width="55.1" height="5.3"/>
</svg>
