<?xml version="1.0" encoding="utf-8"?>
<!-- Generator: Adobe Illustrator 23.0.0, SVG Export Plug-In . SVG Version: 6.00 Build 0)  -->
<svg version="1.1" id="Layer_1" xmlns="http://www.w3.org/2000/svg" xmlns:xlink="http://www.w3.org/1999/xlink" x="0px" y="0px"
	 viewBox="0 0 327.9 104.6" style="enable-background:new 0 0 327.9 104.6;" xml:space="preserve">
<style type="text/css">
	.st0{fill:none;}
	.st1{fill:#009FE0;}
</style>
<title>logo-black</title>
<g>
	<path class="st0" d="M21.1,51.3L18,44.1l-3.1,7.2c1-0.2,2.1-0.3,3.1-0.3C19,51,20.1,51.1,21.1,51.3z"/>
	<path class="st1" d="M18,44.1l3.1,7.2c2.5,0.5,4.8,1.5,6.8,3l-7.1-15.9h-5.6L8,54.3c2-1.5,4.3-2.5,6.8-3L18,44.1z"/>
	<path class="st1" d="M32.9,65.3c-0.4-2.6-1.5-4.9-3.1-6.9c-2-2.5-4.7-4.3-7.8-5.1c-1.3-0.3-2.6-0.5-4-0.5c-1.4,0-2.7,0.2-4,0.5
		c-3.1,0.9-5.8,2.7-7.8,5.1c-1.6,2-2.7,4.3-3.1,6.9C3,65.4,3,65.6,3,65.8h5.5h0.1c0-0.1,0-0.3,0.1-0.4c0.3-1.1,0.7-2.1,1.4-3
		c0.4-0.7,1-1.2,1.6-1.8c1.7-1.5,3.9-2.4,6.4-2.4s4.7,0.9,6.4,2.4c0.6,0.5,1.1,1.1,1.5,1.7c0.7,1,1.2,2,1.4,3.2c0,0.1,0,0.2,0,0.2
		h0.1h5.5C32.9,65.6,32.9,65.4,32.9,65.3z"/>
	<g>
		<path class="st1" d="M82.9,62.2c-2.8,2.7-6.4,4-10.3,4c-10,0-14.3-6.9-14.3-13.9c0-7.1,4.6-14.2,14.3-14.2c3.7,0,7.1,1.4,9.9,4.1
			l-3.4,3.3c-1.8-1.7-4.2-2.5-6.5-2.5c-6.5,0-9.3,4.9-9.3,9.4c0,4.5,2.6,9.1,9.3,9.1c2.4,0,5-1,6.8-2.7L82.9,62.2z"/>
		<path class="st1" d="M136.2,51.7c0,3.1-0.8,6.3-2.5,8.8l3.2,3.2l-3.6,3.6L130,64c-2,1.3-4.6,2-7.7,2c-9.6,0-13.9-7-13.9-14
			c0-7.1,4.4-14.1,13.9-14.1C131.8,37.9,136.1,44.7,136.2,51.7z M113.4,52.1c0.1,4.4,3,9.2,8.9,9.2c6.1,0,9-5.1,8.8-9.8
			c-0.2-4.4-2.5-9.1-8.8-9.1C115.9,42.5,113.4,47.6,113.4,52.1z"/>
		<path class="st1" d="M188.7,38.6V54c0,8-4.9,12.1-11.7,12.1c-6.5,0-12-3.9-12-12.1V38.6h5.1V54c0,4.9,2.8,7.4,7,7.4
			c4.2,0,6.6-2.8,6.6-7.4V38.6H188.7z"/>
		<path class="st1" d="M218.8,65.5v-27h5.1v27H218.8z"/>
		<path class="st1" d="M277.7,65.5h-6.1l-7.9-9h-4.9v9h-5.1V38.5c4.3,0,8.6,0,12.9,0c6.4,0,9.7,4.3,9.7,9c0,3.7-1.7,7.5-6.8,8.5
			l8.2,9.2V65.5z M258.8,43.3v8.6h7.8c3.2,0,4.6-2.2,4.6-4.3c0-2.2-1.4-4.3-4.6-4.3H258.8z"/>
		<path class="st1" d="M325,65.5h-20.2c0-9,0-18,0-27H325v4.9h-15.2v6.2h14.6v4.7h-14.6v6.1H325V65.5z"/>
	</g>
</g>
</svg>
