<?xml version="1.0" encoding="utf-8"?>
<!-- Generator: Adobe Illustrator 23.0.0, SVG Export Plug-In . SVG Version: 6.00 Build 0)  -->
<svg version="1.1" id="Layer_1" xmlns="http://www.w3.org/2000/svg" xmlns:xlink="http://www.w3.org/1999/xlink" x="0px" y="0px"
	 viewBox="0 0 327.9 104.6" style="enable-background:new 0 0 327.9 104.6;" xml:space="preserve">
<style type="text/css">
	.st0{fill:#009FE0;}
</style>
<title>logo-black</title>
<g>
	<g>
		<path class="st0" d="M57.3,33.2h14.1c3.5,0,5.9,0.9,7.5,2.4c1.1,1.1,1.8,2.6,1.8,4.5v0.1c0,3.2-1.8,5.1-4.3,6.1
			c3.3,1.1,5.5,3,5.5,6.7v0.1c0,4.7-3.9,7.6-10.4,7.6H57.3V33.2z M73.2,41.8c0-1.5-1.2-2.4-3.5-2.4h-5v4.8h4.8
			C71.9,44.2,73.2,43.4,73.2,41.8L73.2,41.8z M70.6,49.6h-5.8v5.1h5.9c2.4,0,3.7-0.9,3.7-2.5v-0.1C74.3,50.6,73.1,49.6,70.6,49.6z"
			/>
		<path class="st0" d="M119.4,33.1h7.4l11.7,27.8h-8.2l-2-5h-10.7l-2,5h-8L119.4,33.1z M126.1,49.9l-3.1-7.8l-3.1,7.8H126.1z"/>
		<path class="st0" d="M165.8,33.2h7.6v27.6h-7.6V33.2z"/>
		<path class="st0" d="M202.9,33.2h8.1l6.6,10.7l6.6-10.7h8.1v27.6h-7.6V45l-7,10.8h-0.2l-7-10.8v15.8h-7.5V33.2z"/>
		<path class="st0" d="M261.2,48.7V33.2h7.7v15.3c0,4,2,5.9,5.1,5.9c3.1,0,5.1-1.8,5.1-5.7V33.2h7.7v15.3c0,8.9-5.1,12.8-12.9,12.8
			C266.1,61.3,261.2,57.4,261.2,48.7z"/>
	</g>
	<path class="st0" d="M84,16.9h-4V5h-24v11.9h-4c-6.1,0-11,4.9-11,11v58.9c0,6.1,4.9,11,11,11H84c6.1,0,11-4.9,11-11V27.8
		C95,21.8,90.1,16.9,84,16.9z M58.3,7.2h19.6v9.7H58.3V7.2z M59.8,87.6c0,0.3-0.2,0.5-0.5,0.5h-8.9c-0.3,0-0.5-0.2-0.5-0.5v-3.3
		c0-0.3,0.2-0.5,0.5-0.5h8.9c0.3,0,0.5,0.2,0.5,0.5V87.6z M59.8,80.9c0,0.3-0.2,0.5-0.5,0.5h-8.9c-0.3,0-0.5-0.2-0.5-0.5v-3.3
		c0-0.3,0.2-0.5,0.5-0.5h8.9c0.3,0,0.5,0.2,0.5,0.5V80.9z M59.8,74.3c0,0.3-0.2,0.5-0.5,0.5h-8.9c-0.3,0-0.5-0.2-0.5-0.5V71
		c0-0.3,0.2-0.5,0.5-0.5h8.9c0.3,0,0.5,0.2,0.5,0.5V74.3z M73,87.6c0,0.3-0.2,0.5-0.5,0.5h-8.9c-0.3,0-0.5-0.2-0.5-0.5v-3.3
		c0-0.3,0.2-0.5,0.5-0.5h8.9c0.3,0,0.5,0.2,0.5,0.5V87.6z M73,80.9c0,0.3-0.2,0.5-0.5,0.5h-8.9c-0.3,0-0.5-0.2-0.5-0.5v-3.3
		c0-0.3,0.2-0.5,0.5-0.5h8.9c0.3,0,0.5,0.2,0.5,0.5V80.9z M73,74.3c0,0.3-0.2,0.5-0.5,0.5h-8.9c-0.3,0-0.5-0.2-0.5-0.5V71
		c0-0.3,0.2-0.5,0.5-0.5h8.9c0.3,0,0.5,0.2,0.5,0.5V74.3z M86.2,87.6c0,0.3-0.2,0.5-0.5,0.5h-8.9c-0.3,0-0.5-0.2-0.5-0.5v-3.3
		c0-0.3,0.2-0.5,0.5-0.5h8.9c0.3,0,0.5,0.2,0.5,0.5V87.6z M86.2,80.9c0,0.3-0.2,0.5-0.5,0.5h-8.9c-0.3,0-0.5-0.2-0.5-0.5v-3.3
		c0-0.3,0.2-0.5,0.5-0.5h8.9c0.3,0,0.5,0.2,0.5,0.5V80.9z M86.2,74.3c0,0.3-0.2,0.5-0.5,0.5h-8.9c-0.3,0-0.5-0.2-0.5-0.5V71
		c0-0.3,0.2-0.5,0.5-0.5h8.9c0.3,0,0.5,0.2,0.5,0.5V74.3z M88.4,67.4H47.7V27.8c0-2.4,2-4.3,4.4-4.3H84c2.4,0,4.4,1.9,4.4,4.3V67.4z
		 M75.8,9.2v2.2H60.3V9.2H75.8z M75.8,12.5v2.2H60.3v-2.2H75.8z"/>
	<g>
		<path class="st0" d="M109.4,69.2h6.9c4,0,6.4,2.4,6.4,5.8v0c0,3.9-3,5.9-6.8,5.9h-2.8v5h-3.7V69.2z M116,77.7
			c1.8,0,2.9-1.1,2.9-2.5v0c0-1.7-1.1-2.5-3-2.5h-2.9v5.1H116z"/>
		<path class="st0" d="M132.8,77.7L132.8,77.7c0-4.8,3.8-8.7,8.9-8.7c5.2,0,8.9,3.9,8.9,8.6v0c0,4.8-3.8,8.7-8.9,8.7
			C136.5,86.3,132.8,82.4,132.8,77.7z M146.7,77.7L146.7,77.7c0-2.9-2.1-5.3-5.1-5.3c-3,0-5,2.3-5,5.2v0c0,2.9,2.1,5.3,5.1,5.3
			C144.7,82.9,146.7,80.5,146.7,77.7z"/>
		<path class="st0" d="M160.7,83.6l2.2-2.6c1.5,1.2,3.1,2,5,2c1.5,0,2.4-0.6,2.4-1.6v0c0-0.9-0.6-1.4-3.4-2.1
			c-3.4-0.9-5.6-1.8-5.6-5.1v0c0-3,2.4-5.1,5.9-5.1c2.4,0,4.5,0.8,6.2,2.1l-1.9,2.8c-1.5-1-2.9-1.7-4.4-1.7c-1.4,0-2.2,0.6-2.2,1.5
			v0c0,1.1,0.7,1.5,3.6,2.2c3.4,0.9,5.3,2.1,5.3,5v0c0,3.3-2.5,5.2-6.2,5.2C165.3,86.2,162.8,85.3,160.7,83.6z"/>
	</g>
</g>
</svg>
