<?xml version="1.0" encoding="utf-8"?>
<!-- Generator: Adobe Illustrator 23.0.0, SVG Export Plug-In . SVG Version: 6.00 Build 0)  -->
<svg version="1.1" id="Layer_1" xmlns="http://www.w3.org/2000/svg" xmlns:xlink="http://www.w3.org/1999/xlink" x="0px" y="0px"
	 viewBox="0 0 327.9 104.6" style="enable-background:new 0 0 327.9 104.6;" xml:space="preserve">
<style type="text/css">
	.st0{fill:#FFFFFF;}
</style>
<g>
	<title>logo-white</title>
	<g>
		<path class="st0" d="M59.3,34.2h14.1c3.5,0,5.9,0.9,7.5,2.4c1.1,1.1,1.8,2.6,1.8,4.5v0.1c0,3.2-1.8,5.1-4.3,6.1
			c3.3,1.1,5.5,3,5.5,6.7v0.1c0,4.7-3.9,7.6-10.4,7.6H59.3V34.2z M75.2,42.8c0-1.5-1.2-2.4-3.5-2.4h-5v4.8h4.8
			C73.9,45.2,75.2,44.4,75.2,42.8L75.2,42.8z M72.6,50.6h-5.8v5.1h5.9c2.4,0,3.7-0.9,3.7-2.5v-0.1C76.3,51.6,75.1,50.6,72.6,50.6z"
			/>
		<path class="st0" d="M121.4,34.1h7.4l11.7,27.8h-8.2l-2-5h-10.7l-2,5h-8L121.4,34.1z M128.1,50.9l-3.1-7.8l-3.1,7.8H128.1z"/>
		<path class="st0" d="M167.8,34.2h7.6v27.6h-7.6V34.2z"/>
		<path class="st0" d="M204.9,34.2h8.1l6.6,10.7l6.6-10.7h8.1v27.6h-7.6V46l-7,10.8h-0.2l-7-10.8v15.8h-7.5V34.2z"/>
		<path class="st0" d="M263.2,49.7V34.2h7.7v15.3c0,4,2,5.9,5.1,5.9c3.1,0,5.1-1.8,5.1-5.7V34.2h7.7v15.3c0,8.9-5.1,12.8-12.9,12.8
			C268.1,62.3,263.2,58.4,263.2,49.7z"/>
	</g>
	<path class="st0" d="M86,17.9h-4V6h-24v11.9h-4c-6.1,0-11,4.9-11,11v58.9c0,6.1,4.9,11,11,11H86c6.1,0,11-4.9,11-11V28.8
		C97,22.8,92.1,17.9,86,17.9z M60.3,8.2h19.6v9.7H60.3V8.2z M61.8,88.6c0,0.3-0.2,0.5-0.5,0.5h-8.9c-0.3,0-0.5-0.2-0.5-0.5v-3.3
		c0-0.3,0.2-0.5,0.5-0.5h8.9c0.3,0,0.5,0.2,0.5,0.5V88.6z M61.8,81.9c0,0.3-0.2,0.5-0.5,0.5h-8.9c-0.3,0-0.5-0.2-0.5-0.5v-3.3
		c0-0.3,0.2-0.5,0.5-0.5h8.9c0.3,0,0.5,0.2,0.5,0.5V81.9z M61.8,75.3c0,0.3-0.2,0.5-0.5,0.5h-8.9c-0.3,0-0.5-0.2-0.5-0.5V72
		c0-0.3,0.2-0.5,0.5-0.5h8.9c0.3,0,0.5,0.2,0.5,0.5V75.3z M75,88.6c0,0.3-0.2,0.5-0.5,0.5h-8.9c-0.3,0-0.5-0.2-0.5-0.5v-3.3
		c0-0.3,0.2-0.5,0.5-0.5h8.9c0.3,0,0.5,0.2,0.5,0.5V88.6z M75,81.9c0,0.3-0.2,0.5-0.5,0.5h-8.9c-0.3,0-0.5-0.2-0.5-0.5v-3.3
		c0-0.3,0.2-0.5,0.5-0.5h8.9c0.3,0,0.5,0.2,0.5,0.5V81.9z M75,75.3c0,0.3-0.2,0.5-0.5,0.5h-8.9c-0.3,0-0.5-0.2-0.5-0.5V72
		c0-0.3,0.2-0.5,0.5-0.5h8.9c0.3,0,0.5,0.2,0.5,0.5V75.3z M88.2,88.6c0,0.3-0.2,0.5-0.5,0.5h-8.9c-0.3,0-0.5-0.2-0.5-0.5v-3.3
		c0-0.3,0.2-0.5,0.5-0.5h8.9c0.3,0,0.5,0.2,0.5,0.5V88.6z M88.2,81.9c0,0.3-0.2,0.5-0.5,0.5h-8.9c-0.3,0-0.5-0.2-0.5-0.5v-3.3
		c0-0.3,0.2-0.5,0.5-0.5h8.9c0.3,0,0.5,0.2,0.5,0.5V81.9z M88.2,75.3c0,0.3-0.2,0.5-0.5,0.5h-8.9c-0.3,0-0.5-0.2-0.5-0.5V72
		c0-0.3,0.2-0.5,0.5-0.5h8.9c0.3,0,0.5,0.2,0.5,0.5V75.3z M90.4,68.4H49.7V28.8c0-2.4,2-4.3,4.4-4.3H86c2.4,0,4.4,1.9,4.4,4.3V68.4z
		 M77.8,10.2v2.2H62.3v-2.2H77.8z M77.8,13.5v2.2H62.3v-2.2H77.8z"/>
	<g>
		<path class="st0" d="M111.4,70.2h6.9c4,0,6.4,2.4,6.4,5.8v0c0,3.9-3,5.9-6.8,5.9h-2.8v5h-3.7V70.2z M118,78.7
			c1.8,0,2.9-1.1,2.9-2.5v0c0-1.7-1.1-2.5-3-2.5h-2.9v5.1H118z"/>
		<path class="st0" d="M134.8,78.7L134.8,78.7c0-4.8,3.8-8.7,8.9-8.7c5.2,0,8.9,3.9,8.9,8.6v0c0,4.8-3.8,8.7-8.9,8.7
			C138.5,87.3,134.8,83.4,134.8,78.7z M148.7,78.7L148.7,78.7c0-2.9-2.1-5.3-5.1-5.3c-3,0-5,2.3-5,5.2v0c0,2.9,2.1,5.3,5.1,5.3
			C146.7,83.9,148.7,81.5,148.7,78.7z"/>
		<path class="st0" d="M162.7,84.6l2.2-2.6c1.5,1.2,3.1,2,5,2c1.5,0,2.4-0.6,2.4-1.6v0c0-0.9-0.6-1.4-3.4-2.1
			c-3.4-0.9-5.6-1.8-5.6-5.1v0c0-3,2.4-5.1,5.9-5.1c2.4,0,4.5,0.8,6.2,2.1l-1.9,2.8c-1.5-1-2.9-1.7-4.4-1.7c-1.4,0-2.2,0.6-2.2,1.5
			v0c0,1.1,0.7,1.5,3.6,2.2c3.4,0.9,5.3,2.1,5.3,5v0c0,3.3-2.5,5.2-6.2,5.2C167.3,87.2,164.8,86.3,162.7,84.6z"/>
	</g>
</g>
</svg>
