<?xml version="1.0" encoding="utf-8"?>
<!-- Generator: Adobe Illustrator 21.0.0, SVG Export Plug-In . SVG Version: 6.00 Build 0)  -->
<svg version="1.1" id="Layer_1" xmlns="http://www.w3.org/2000/svg" xmlns:xlink="http://www.w3.org/1999/xlink" x="0px" y="0px"
	 viewBox="0 0 120 90" style="enable-background:new 0 0 120 90;" xml:space="preserve">
<style type="text/css">
	.st0{fill:#262261;}
	.st1{fill:#0EB79A;}
</style>
<title>Artboard 1</title>
<g>
	<path class="st0" d="M79.9,29.5c-1,0-1.8-0.8-1.9-1.8c-0.9-9.5-8.7-16.6-18.2-16.6s-17.3,7.1-18.2,16.6c-0.1,1.1-1.1,1.9-2.1,1.8
		c-1.1-0.1-1.9-1-1.8-2.1C38.7,15.9,48.2,7.3,59.7,7.3s21,8.6,22.1,20.1c0.1,1.1-0.7,2-1.8,2.1C80,29.5,79.9,29.5,79.9,29.5z"/>
</g>
<g>
	<path class="st1" d="M103,37l-0.1-1.5l-1.5-0.2c-2.3-0.4-4.7-0.6-7-0.6c-14.6,0-28.2,7.3-36.3,19.5c-4.7,7.1-7.2,15.4-7.2,24
		c0,1.3,0.1,2.7,0.2,4.1l0.1,1.5l1.5,0.2c2.3,0.4,4.7,0.6,7,0.6s4.7-0.2,7-0.6c21.1-3.4,36.5-21.5,36.5-42.9
		C103.2,39.8,103.1,38.4,103,37z M61.3,56.4c8.1-12.3,22.4-19.1,37.3-17.5l-6.8,6.4l-1.3-3.5c-0.1-0.4-0.6-0.6-1-0.5
		c-0.4,0.1-0.6,0.6-0.5,1l1.5,4.1l-7.7,7.1L81,48.3c-0.1-0.4-0.6-0.6-1-0.5c-0.4,0.1-0.6,0.6-0.5,1l2.1,5.8l-8.4,7.8l-2.6-7
		c-0.1-0.4-0.6-0.6-1-0.5c-0.4,0.1-0.6,0.6-0.5,1l2.8,7.7c0,0,0,0,0,0l-8.9,8.3l-3.3-9.2c-0.1-0.4-0.6-0.6-1-0.5
		c-0.4,0.1-0.6,0.6-0.5,1l3.6,9.8l-7.1,6.6c0-0.5,0-1,0-1.5C54.7,70.4,57,62.9,61.3,56.4z M66.1,80.2c-3.3,0.5-6.6,0.7-10,0.4
		l6.5-6.1l10,3.6c0.1,0,0.2,0,0.3,0c0.3,0,0.6-0.2,0.7-0.5c0.1-0.4-0.1-0.8-0.5-1l-9.3-3.4l9.1-8.5l7.2,2.6c0.1,0,0.2,0,0.3,0
		c0.3,0,0.6-0.2,0.7-0.5c0.1-0.4-0.1-0.8-0.5-1l-6.5-2.4l8.2-7.6l6,2.2c0.1,0,0.2,0,0.3,0c0.3,0,0.6-0.2,0.7-0.5
		c0.1-0.4-0.1-0.8-0.5-1l-5.2-1.9l7.7-7.1l4.2,1.5c0.1,0,0.2,0,0.3,0c0.3,0,0.6-0.2,0.7-0.5c0.1-0.4-0.1-0.8-0.5-1l-3.5-1.3l6.6-6.1
		c0,0.3,0,0.6,0,0.8C99.3,60.7,85.3,77.1,66.1,80.2z"/>
	<path class="st1" d="M58.1,56.4l3.2-2.1C53.2,42,39.6,34.7,25,34.7c-2.3,0-4.7,0.2-7,0.6l-1.5,0.2L16.4,37
		c-0.1,1.4-0.2,2.8-0.2,4.1c0,21.4,15.3,39.5,36.5,42.9l0.6-3.8C34,77.1,20.1,60.7,20.1,41.1c0-0.4,0-0.9,0-1.3l5.4,4.9l-2.2,1
		c-0.4,0.2-0.6,0.6-0.4,1c0.1,0.3,0.4,0.4,0.7,0.4c0.1,0,0.2,0,0.3-0.1l2.8-1.3l5.5,4.9l-3.5,1.6c-0.4,0.2-0.6,0.6-0.4,1
		c0.1,0.3,0.4,0.4,0.7,0.4c0.1,0,0.2,0,0.3-0.1l4.1-1.9l6,5.4l-4.8,2.2c-0.4,0.2-0.6,0.6-0.4,1c0.1,0.3,0.4,0.4,0.7,0.4
		c0.1,0,0.2,0,0.3-0.1l5.4-2.5l6.4,5.7l-6.3,3c-0.4,0.2-0.6,0.6-0.4,1c0.1,0.3,0.4,0.4,0.7,0.4c0.1,0,0.2,0,0.3-0.1l6.9-3.2l6,5.3
		c0.1,0.1,0.3,0.2,0.5,0.2c0.2,0,0.4-0.1,0.6-0.3c0.3-0.3,0.3-0.8-0.1-1.1l-6.1-5.4l2.1-7.9c0.1-0.4-0.1-0.8-0.6-0.9
		c-0.4-0.1-0.8,0.1-0.9,0.6l-1.9,7.1l-6.6-5.9l1.4-5.3c0.1-0.4-0.1-0.8-0.6-0.9c-0.4-0.1-0.8,0.1-0.9,0.6l-1.2,4.5l-5.5-4.9l1.2-4.4
		c0.1-0.4-0.1-0.8-0.6-0.9c-0.4-0.1-0.8,0.1-0.9,0.6l-1,3.7l-5.5-4.9l0.8-3.1c0.1-0.4-0.1-0.8-0.6-0.9c-0.4-0.1-0.8,0.1-0.9,0.6
		l-0.6,2.3l-5.3-4.8C36,37.4,50,44.2,58.1,56.4z"/>
</g>
</svg>
