<?xml version="1.0" encoding="utf-8"?>
<!-- Generator: Adobe Illustrator 23.0.0, SVG Export Plug-In . SVG Version: 6.00 Build 0)  -->
<svg version="1.1" id="Layer_1" xmlns="http://www.w3.org/2000/svg" xmlns:xlink="http://www.w3.org/1999/xlink" x="0px" y="0px"
	 viewBox="0 0 327.9 104.6" style="enable-background:new 0 0 327.9 104.6;" xml:space="preserve">
<style type="text/css">
	.st0{fill:#FFFFFF;}
</style>
<g>
	<path class="st0" d="M6,8h34.3c7.9,0,15,1.5,21.2,4.5c6.2,3,10.9,7.2,14.3,12.7c3.4,5.5,5.1,11.9,5.1,19.2c0,7.3-1.7,13.7-5.1,19.2
		c-3.4,5.5-8.2,9.7-14.3,12.7c-6.2,3-13.2,4.5-21.2,4.5H6V8z M39.5,64.2c6.2,0,11.2-1.8,15-5.3c3.8-3.5,5.7-8.4,5.7-14.6
		s-1.9-11.1-5.7-14.6c-3.8-3.5-8.8-5.3-15-5.3h-13v39.8H39.5z"/>
	<path class="st0" d="M100,73.2c-6-5.9-9-14.2-9-25V8h20.5v39.6c0,11.6,4.6,17.4,13.8,17.4c9.1,0,13.7-5.8,13.7-17.4V8h20.2v40.2
		c0,10.8-3,19.1-9,25c-6,5.9-14.4,8.8-25.1,8.8S106,79.1,100,73.2z"/>
	<path class="st0" d="M201.2,54.3l-7.7,8.2v18.1h-20.3V8h20.3v30.2L221.6,8h22.6l-29.7,32.1l31.2,40.4h-23.9L201.2,54.3z"/>
	<path class="st0" d="M296.4,66.5h-30.7L260,80.6H239l32-72.6h20.2l32.1,72.6h-21.4L296.4,66.5z M290.4,51.3L281,28.1l-9.3,23.2
		H290.4z"/>
</g>
<rect x="6.2" y="89.7" class="st0" width="78.3" height="7.5"/>
<rect x="84.5" y="89.7" class="st0" width="78.3" height="7.5"/>
<rect x="162.9" y="89.7" class="st0" width="78.3" height="7.5"/>
<rect x="241.2" y="89.7" class="st0" width="78.3" height="7.5"/>
</svg>
